# xmcd
#
# Track frame offsets:
#	150
#	21856
#	34967
#	58413
#	92356
#	105161
#	127300
#	142198
#	169617
#	184101
#	205513
#	226343
#	259957
#	276747
#	299107
#
# Disc length: 4312
#
# Revision: 1
# Processed by: cddbd v1.5.1PL0 Copyright (c) Steve Scherf et al.
# Submitted via: WhereIsIt 3.23
# Normalized: r0:DSETVAR1
#
DISCID=eb10d60f
DTITLE=Various Artist - Blues Story - Vol. 04 - Le Blues Rock
DYEAR=1900
DGENRE=
TTITLE0=George Thorogood - Bad To The Bone
TTITLE1=Dr. Feelgood - Dust My Broom
TTITLE2=The Allman Brother Band - Hot'lanta
TTITLE3=Rick Derringer, Steve Hunter and Pat Travers - Blues For Stevie
TTITLE4=Canned Heat - Goin' Up The Country
TTITLE5=Cream - White Room
TTITLE6=Gary Moore - Parisienne Walkways
TTITLE7=Roy Buchanan - Why Don't You Want Me
TTITLE8=Bo Diddley - You Can't Judge A Book By Its Cover
TTITLE9=Popa Chubby - Dance The Night Away
TTITLE10=Rory Gallagher - Tattoo'd Lady
TTITLE11=Status Quo - Roadhouse Blues
TTITLE12=Lynyrd Skynyrd - Crossroads (Live)
TTITLE13=Willy DeVille - Jump City
TTITLE14=Great White - South Bay Cities
EXTD=
EXTT0=
EXTT1=
EXTT2=
EXTT3=
EXTT4=
EXTT5=
EXTT6=
EXTT7=
EXTT8=
EXTT9=
EXTT10=
EXTT11=
EXTT12=
EXTT13=
EXTT14=
PLAYORDER=
